<?xml version="1.0" encoding="utf-8"?>
<!-- Generator: Adobe Illustrator 25.2.1, SVG Export Plug-In . SVG Version: 6.00 Build 0)  -->
<svg version="1.1" id="Capa_1" xmlns="http://www.w3.org/2000/svg" xmlns:xlink="http://www.w3.org/1999/xlink" x="0px" y="0px"
	 viewBox="0 0 38 38" style="enable-background:new 0 0 38 38;" xml:space="preserve">
<style type="text/css">
	.st0{clip-path:url(#SVGID_2_);}
	.st1{fill:#7DE9FF;}
	.st2{fill:#7356FC;}
</style>
<g>
	<defs>
		<rect id="SVGID_1_" x="0" y="0" width="200" height="37.3"/>
	</defs>
	<clipPath id="SVGID_2_">
		<use xlink:href="#SVGID_1_"  style="overflow:visible;"/>
	</clipPath>
	<g class="st0">
		<path class="st1" d="M10.5,23.4l-5.9,7.4c-1.4,1.7-1.1,4.1,0.6,5.5C6,37,6.8,37.2,7.6,37.2c1.2,0,2.3-0.5,3.1-1.5l4.7-6L10.5,23.4
			z"/>
		<path class="st2" d="M23.9,19l9.5-12c1.3-1.7,1.1-4-0.6-5.4c-1.7-1.3-4.1-1.1-5.4,0.6L19,12.8L10.6,2.2C9.3,0.5,6.8,0.3,5.2,1.6
			C3.5,2.9,3.3,5.3,4.6,7l4.9,6.2l4.6,5.8l0,0l4.9,6.2l0,0l8.4,10.6c0.8,0.9,1.9,1.5,3,1.5c0.8,0,1.7-0.3,2.4-0.9
			c1.7-1.3,1.9-3.7,0.6-5.4L23.9,19z"/>
	</g>
</g>
</svg>
