<svg viewBox="0 0 200 38" fill="none" xmlns="http://www.w3.org/2000/svg">
<g clip-path="url(#clip0)">
<path d="M5.03829 17.5706L0.645653 23.1524C-0.36973 24.4244 -0.16555 26.2455 1.10368 27.2608C1.66379 27.7189 2.32324 27.9203 2.92475 27.9203C3.78837 27.9203 4.652 27.5147 5.26178 26.8028L8.78251 22.3302L5.03829 17.5706Z" fill="#7DE9FF"/>
<path d="M15.4542 13.9284L22.6971 4.7541C23.7125 3.48488 23.5111 1.66105 22.2474 0.645667C20.9781 -0.364197 19.0964 -0.168294 18.0893 1.10369L11.6521 9.21572L5.26454 1.10093C4.2464 -0.168294 2.37291 -0.364197 1.10368 0.642908C-0.16555 1.65829 -0.36973 3.48212 0.645652 4.75134L4.36228 9.45577L7.89681 13.9284L7.88853 13.9422L11.6328 18.7101L11.6466 18.6963L18.0837 26.8056C18.6935 27.5174 19.5489 27.923 20.4125 27.923C21.0223 27.923 21.6817 27.7189 22.2418 27.2636C23.5056 26.2482 23.707 24.4244 22.6916 23.1552L15.4542 13.9284Z" fill="#7356FC"/>
<path d="M44.1305 18.4315C44.1305 21.0527 43.289 23.4587 41.7052 25.266C40.0552 27.1422 37.7982 28.2045 35.3066 28.2045C33.5214 28.2045 31.8383 27.6389 30.4229 26.6456V35.0032C30.4229 36.1372 29.5151 37.056 28.4362 37.056C27.3574 37.056 26.4827 36.1344 26.4827 35.0032V10.7499C26.4827 9.61583 27.3601 8.69702 28.4362 8.69702C29.3468 8.69702 30.1525 9.37026 30.3566 10.2891C31.8052 9.26266 33.5214 8.69702 35.3066 8.69702C37.7982 8.69702 40.0552 9.72344 41.7052 11.5997C43.289 13.4014 44.1305 15.8461 44.1305 18.4315ZM40.2235 18.4315C40.2235 15.1728 38.1679 12.8027 35.3066 12.8027C32.4785 12.8027 30.4229 15.1756 30.4229 18.4315C30.4229 21.6873 32.4785 24.0602 35.3066 24.0602C38.1707 24.0602 40.2235 21.6873 40.2235 18.4315Z" fill="#7356FC"/>
<path d="M53.8677 20.2471H62.2225C63.3814 20.2471 64.2919 19.3365 64.2919 18.2135C64.2919 12.6069 60.5477 8.5481 55.3935 8.5481C50.2808 8.5481 46.3931 12.6786 46.3931 18.2135C46.3931 20.7686 47.2677 23.1884 48.915 24.9432C50.6339 26.8333 52.982 27.9562 55.5729 27.9562C58.7956 27.9562 61.53 26.8691 63.1055 24.0272C63.6656 23.0808 63.3842 21.8226 62.4046 21.2266C61.4582 20.6665 60.2001 20.9479 59.5986 21.9274C58.7956 23.3953 57.3581 23.8892 55.5729 23.8892C53.3379 23.8892 51.539 22.4351 50.8105 20.3574C50.7995 20.3381 50.794 20.316 50.7857 20.2912C50.7802 20.2747 50.7747 20.2609 50.7719 20.2443H50.7774C50.6312 19.7063 50.4932 18.9751 50.4987 18.1087C50.4987 17.3168 50.6201 16.6463 50.7471 16.1414H50.7415C50.7415 16.1359 50.7471 16.1248 50.7526 16.1221C51.4838 13.7243 53.5118 12.6041 55.3963 12.6041C57.3222 12.6041 59.2537 13.7271 59.949 16.1414H53.8705V20.2471H53.8677Z" fill="#7356FC"/>
<path d="M133.854 20.2471H142.209C143.368 20.2471 144.278 19.3365 144.278 18.2135C144.278 12.6069 140.534 8.5481 135.38 8.5481C130.267 8.5481 126.379 12.6786 126.379 18.2135C126.379 20.7686 127.254 23.1884 128.901 24.9432C130.62 26.8333 132.968 27.9562 135.559 27.9562C138.782 27.9562 141.516 26.8691 143.092 24.0272C143.652 23.0808 143.37 21.8226 142.391 21.2266C141.444 20.6665 140.186 20.9479 139.585 21.9274C138.782 23.3953 137.344 23.8892 135.559 23.8892C133.324 23.8892 131.525 22.4351 130.797 20.3574C130.786 20.3381 130.78 20.316 130.772 20.2912C130.766 20.2747 130.761 20.2609 130.758 20.2443H130.764C130.617 19.7063 130.479 18.9751 130.485 18.1087C130.485 17.3168 130.606 16.6463 130.733 16.1414H130.728C130.728 16.1359 130.733 16.1248 130.739 16.1221C131.47 13.7243 133.498 12.6041 135.383 12.6041C137.308 12.6041 139.24 13.7271 139.935 16.1414H133.857V20.2471H133.854Z" fill="#7356FC"/>
<path d="M189.579 20.4236H197.933C199.092 20.4236 200.003 19.513 200.003 18.3901C200.003 12.7834 196.259 8.72461 191.104 8.72461C185.992 8.72461 182.104 12.8551 182.104 18.3901C182.104 20.9451 182.979 23.3649 184.626 25.1197C186.345 27.0098 188.693 28.1328 191.284 28.1328C194.506 28.1328 197.241 27.0456 198.816 24.2037C199.376 23.2573 199.095 21.9991 198.115 21.4031C197.169 20.843 195.911 21.1244 195.309 22.1039C194.506 23.5718 193.069 24.0657 191.284 24.0657C189.049 24.0657 187.25 22.6116 186.521 20.5339C186.51 20.5146 186.505 20.4926 186.497 20.4677C186.491 20.4512 186.485 20.4374 186.483 20.4208H186.488C186.342 19.8828 186.204 19.1516 186.21 18.2852C186.21 17.4933 186.331 16.8228 186.458 16.3179H186.452C186.452 16.3124 186.458 16.3013 186.463 16.2986C187.195 13.9009 189.223 12.7806 191.107 12.7806C193.033 12.7806 194.964 13.9036 195.66 16.3179H189.581V20.4236H189.579Z" fill="#7356FC"/>
<path d="M179.96 18.6273C179.96 21.2485 179.118 23.6545 177.535 25.4618C175.885 27.338 173.628 28.4003 171.136 28.4003C169.351 28.4003 167.668 27.8347 166.252 26.8414V35.199C166.252 36.333 165.345 37.2518 164.266 37.2518C163.187 37.2518 162.312 36.3302 162.312 35.199V10.9457C162.312 9.81163 163.19 8.89282 164.266 8.89282C165.176 8.89282 165.982 9.56607 166.186 10.4849C167.635 9.45846 169.351 8.89282 171.136 8.89282C173.628 8.89282 175.885 9.91924 177.535 11.7955C179.118 13.5972 179.96 16.0419 179.96 18.6273ZM176.053 18.6273C176.053 15.3686 173.997 12.9985 171.136 12.9985C168.308 12.9985 166.252 15.3714 166.252 18.6273C166.252 21.8831 168.308 24.256 171.136 24.256C174 24.256 176.053 21.8831 176.053 18.6273Z" fill="#7356FC"/>
<path d="M67.2802 26.0855V10.6616C67.2802 9.42827 68.279 8.42944 69.5123 8.42944C70.7457 8.42944 71.7445 9.42827 71.7445 10.6616V11.6053C72.1336 10.9955 72.5419 10.5209 72.9696 10.1788C73.3973 9.83663 73.836 9.57451 74.2857 9.3924C74.7382 9.2103 75.1935 9.09441 75.6571 9.04474C76.1206 8.99508 76.5952 8.97024 77.0835 8.97024C77.9886 8.97024 78.7225 9.70419 78.7225 10.6092V12.0964C78.7225 13.018 77.9637 13.7547 77.0422 13.7354C76.6945 13.7271 76.3855 13.7243 76.2061 13.7299C73.8746 13.785 72.037 15.7496 72.037 18.0811V26.0855C72.037 27.3989 70.9719 28.4639 69.6586 28.4639C68.3452 28.4639 67.2802 27.3989 67.2802 26.0855Z" fill="#7356FC"/>
<path d="M93.28 15.5923C92.0549 15.5923 91.0643 16.5828 91.0643 17.8024V20.2719C91.0643 21.3949 90.8408 22.264 90.3883 22.8683C89.9358 23.4781 89.235 23.7843 88.2831 23.7843C87.3063 23.7843 86.6055 23.4753 86.1778 22.8545C85.7501 22.2281 85.5377 21.3507 85.5377 20.2029V15.9427H80.8581V20.6747C80.8581 21.6542 80.9905 22.5813 81.2609 23.4587C81.5313 24.3334 81.9618 25.106 82.5578 25.7599C83.1565 26.4194 83.9208 26.9436 84.8451 27.3354C85.775 27.7272 86.898 27.9204 88.2141 27.9204C89.4806 27.9204 90.5732 27.7272 91.4865 27.3354C92.4026 26.9436 93.1586 26.4166 93.7573 25.7434C94.3533 25.0729 94.7948 24.3058 95.0735 23.4367C95.3521 22.573 95.4956 21.6625 95.4956 20.7133V17.8024C95.4956 16.5828 94.5023 15.5923 93.28 15.5923Z" fill="#7356FC"/>
<path d="M93.807 12.8081C94.2705 12.8081 94.6954 12.6205 95.0017 12.3142C95.308 12.008 95.4956 11.5886 95.4956 11.125C95.4956 10.1952 94.7396 9.44192 93.807 9.44192H85.5377V6.91726C85.5377 6.27161 85.2728 5.68666 84.8506 5.26175C84.4285 4.83959 83.838 4.57471 83.1924 4.57471C81.9011 4.57471 80.8553 5.62596 80.8553 6.91726V12.8081H93.807Z" fill="#7DE9FF"/>
<path d="M99.3723 5.07151C99.3723 3.84919 100.363 2.85864 101.585 2.85864H101.914C103.136 2.85864 104.126 3.84919 104.126 5.07151C104.126 6.29384 103.136 7.28439 101.914 7.28439H101.585C100.363 7.28439 99.3723 6.29384 99.3723 5.07151ZM99.3723 25.0674V11.8233C99.3723 10.5099 100.437 9.44483 101.751 9.44483C103.064 9.44483 104.129 10.5099 104.129 11.8233V25.0701C104.129 26.3835 103.064 27.4486 101.751 27.4486C100.437 27.4458 99.3723 26.3808 99.3723 25.0674Z" fill="#7356FC"/>
<path d="M120.546 14.8969C119.713 14.8969 118.982 14.4112 118.568 13.6883C118.416 13.4235 118.226 13.2082 117.994 13.0482C117.481 12.695 116.678 12.5184 115.58 12.5184C114.584 12.5184 113.841 12.6592 113.35 12.9406C112.967 13.1613 112.754 13.6056 112.763 14.0498C112.771 14.5713 113.016 14.9714 113.494 15.2445C113.982 15.526 114.713 15.7991 115.69 16.0668C116.714 16.3592 117.691 16.6214 118.618 16.8531C119.545 17.0849 120.361 17.336 121.068 17.6036C122.02 17.9954 122.751 18.5252 123.264 19.1957C123.777 19.8662 124.031 20.7877 124.031 21.9576C124.031 23.8366 123.366 25.299 122.036 26.3475C120.706 27.396 118.75 27.9202 116.165 27.9202C113.383 27.9202 111.256 27.3353 109.78 26.1626C109.487 25.9309 109.223 25.6853 108.988 25.4287C107.666 23.9884 108.715 21.6624 110.668 21.6624C111.482 21.6624 112.283 22.068 112.644 22.7964C112.81 23.1248 113.055 23.4062 113.386 23.638C114.046 24.1015 114.959 24.3333 116.132 24.3333C116.984 24.3333 117.729 24.1926 118.364 23.9111C118.996 23.6325 119.313 23.1524 119.316 22.4736C119.318 21.8969 118.982 21.3589 118.46 21.1161C117.886 20.8484 117.208 20.6139 116.427 20.418C114.915 20.051 113.695 19.7227 112.768 19.4302C111.841 19.1377 111.06 18.7846 110.426 18.3679C109.57 17.8326 108.98 17.2201 108.651 16.5386C108.323 15.8571 108.158 15.1121 108.158 14.3064C108.158 13.5504 108.293 12.844 108.56 12.1846C108.828 11.5251 109.267 10.9595 109.879 10.4822C110.489 10.0076 111.275 9.63508 112.238 9.36744C113.201 9.0998 114.366 8.9646 115.732 8.9646C118.342 8.9646 120.262 9.46401 121.495 10.4656C121.827 10.736 122.119 11.0395 122.37 11.3761C123.441 12.8302 122.356 14.8969 120.546 14.8969Z" fill="#7356FC"/>
<path d="M148.729 17.427C148.729 15.0017 150.693 13.0371 153.119 13.0371H153.378C155.803 13.0371 157.768 15.0017 157.768 17.427C157.768 19.8523 155.803 21.8169 153.378 21.8169H153.119C150.696 21.8169 148.729 19.8496 148.729 17.427Z" fill="#7DE9FF"/>
<path d="M50.8078 20.3602H50.8023C50.7968 20.3409 50.7912 20.3133 50.783 20.2939C50.794 20.3188 50.7995 20.3409 50.8078 20.3602Z" fill="white"/>
</g>
<defs>
<clipPath id="clip0">
<rect width="200" height="37.2518" fill="white"/>
</clipPath>
</defs>
</svg>
